<svg width="27" height="19" viewBox="0 0 27 19" fill="none" xmlns="http://www.w3.org/2000/svg">
<path d="M27 16.625V2.375C27 1.06083 25.9365 0 24.619 0H2.38095C1.06349 0 0 1.06083 0 2.375V16.625C0 17.9392 1.06349 19 2.38095 19H24.619C25.9365 19 27 17.9392 27 16.625ZM24.9206 2.20083C25.4444 2.72333 25.1587 3.26167 24.873 3.53083L18.4286 9.42083L24.619 15.8492C24.8095 16.0708 24.9365 16.4192 24.7143 16.6567C24.5079 16.91 24.0317 16.8942 23.8254 16.7358L16.8889 10.83L13.4921 13.9175L10.1111 10.83L3.1746 16.7358C2.96825 16.8942 2.49206 16.91 2.28571 16.6567C2.06349 16.4192 2.19048 16.0708 2.38095 15.8492L8.57143 9.42083L2.12698 3.53083C1.84127 3.26167 1.55556 2.72333 2.07937 2.20083C2.60317 1.67833 3.14286 1.93167 3.5873 2.31167L13.4921 10.2917L23.4127 2.31167C23.8571 1.93167 24.3968 1.67833 24.9206 2.20083Z" fill="#F4F4F4"/>
</svg>
