<svg width="28" height="35" viewBox="0 0 28 35" fill="none" xmlns="http://www.w3.org/2000/svg">
<path d="M14 0C10.2883 0.00430059 6.72991 1.45434 4.10535 4.03203C1.48079 6.60973 0.00439367 10.1046 1.48946e-05 13.75C-0.0044306 16.729 0.986353 19.6272 2.82038 22C2.82038 22 3.20219 22.4937 3.26456 22.565L14 35L24.7405 22.5588C24.7965 22.4925 25.1796 22 25.1796 22L25.1809 21.9963C27.014 19.6245 28.0043 16.7277 28 13.75C27.9956 10.1046 26.5192 6.60973 23.8946 4.03203C21.2701 1.45434 17.7117 0.00430059 14 0ZM14 18.75C12.9931 18.75 12.0088 18.4568 11.1716 17.9073C10.3345 17.3579 9.68194 16.577 9.29662 15.6634C8.9113 14.7498 8.81048 13.7445 9.00692 12.7745C9.20335 11.8046 9.68821 10.9137 10.4002 10.2145C11.1122 9.5152 12.0193 9.039 13.0068 8.84607C13.9944 8.65315 15.018 8.75216 15.9482 9.1306C16.8784 9.50904 17.6735 10.1499 18.2329 10.9721C18.7923 11.7944 19.0909 12.7611 19.0909 13.75C19.0892 15.0756 18.5523 16.3464 17.598 17.2837C16.6436 18.221 15.3497 18.7483 14 18.75Z" fill="#F4F4F4"/>
</svg>
