<svg width="30" height="29" viewBox="0 0 30 29" fill="none" xmlns="http://www.w3.org/2000/svg">
<path d="M15 0C6.71652 0 0 6.49263 0 14.5C0 22.5074 6.71652 29 15 29C23.2835 29 30 22.5074 30 14.5C30 6.49263 23.2835 0 15 0ZM22.2087 10.93C22.2187 11.0821 22.2187 11.2407 22.2187 11.3961C22.2187 16.1474 18.4754 21.6205 11.635 21.6205C9.52567 21.6205 7.57031 21.0282 5.92299 20.0087C6.22433 20.0411 6.51228 20.054 6.82031 20.054C8.56138 20.054 10.1618 19.4844 11.4375 18.5199C9.80357 18.4875 8.4308 17.4518 7.96205 16.0277C8.5346 16.1086 9.05022 16.1086 9.63951 15.9629C8.79819 15.7977 8.04199 15.356 7.49938 14.7129C6.95678 14.0698 6.66123 13.2649 6.66295 12.435V12.3897C7.15513 12.6584 7.73438 12.8234 8.3404 12.8461C7.83095 12.5179 7.41314 12.0732 7.12403 11.5515C6.83493 11.0299 6.68345 10.4473 6.68304 9.85547C6.68304 9.18549 6.86384 8.57377 7.18862 8.04297C8.12244 9.15421 9.28771 10.0631 10.6087 10.7105C11.9297 11.3579 13.3768 11.7293 14.856 11.8007C14.3304 9.35703 16.2188 7.37946 18.4888 7.37946C19.5603 7.37946 20.5246 7.81317 21.2042 8.51228C22.0446 8.36016 22.8482 8.05591 23.5647 7.6481C23.2868 8.47991 22.7042 9.18225 21.9308 9.62567C22.6808 9.54799 23.404 9.34732 24.0737 9.06574C23.5681 9.78426 22.9353 10.4219 22.2087 10.93Z" fill="#F4F4F4"/>
</svg>
