<svg width="39" height="40" viewBox="0 0 39 40" fill="none" xmlns="http://www.w3.org/2000/svg">
<path d="M10.2731 33.6796L10.9085 33.9973C13.5564 35.586 16.5218 36.3273 19.4874 36.3273C28.8075 36.3273 36.4331 28.7018 36.4331 19.3817C36.4331 14.9335 34.6325 10.5912 31.4553 7.4138C28.2779 4.23644 24.0414 2.43604 19.4874 2.43604C10.1673 2.43604 2.5416 10.0616 2.64758 19.4877C2.64758 22.6649 3.60077 25.7364 5.18937 28.384L5.61298 29.0196L3.91855 35.2683L10.2731 33.6796Z" fill="#00E676"/>
<path d="M33.2559 5.71915C29.6549 2.01236 24.6772 0 19.5934 0C8.79068 0 0.105978 8.79053 0.211804 19.4874C0.211804 22.8766 1.165 26.1599 2.75375 29.1253L0 39.1869L10.2733 36.5391C13.1329 38.1278 16.3101 38.8692 19.4876 38.8692C30.1845 38.8692 38.8692 30.0785 38.8692 19.3818C38.8692 14.1921 36.8569 9.32012 33.256 5.71915H33.2559ZM19.5934 35.586C16.7339 35.586 13.8743 34.8448 11.4383 33.362L10.8029 33.0442L4.66013 34.6328L6.24874 28.5961L5.82513 27.9605C1.165 20.4409 3.38916 10.4851 11.0147 5.82498C18.6402 1.165 28.4899 3.38916 33.1501 11.0147C37.8101 18.6402 35.5859 28.4899 27.9605 33.1501C25.5244 34.7387 22.559 35.5859 19.5934 35.5859V35.586ZM28.9135 23.8301L27.7485 23.3005C27.7485 23.3005 26.0541 22.5591 24.9949 22.0295C24.889 22.0295 24.7831 21.9236 24.6772 21.9236C24.3594 21.9236 24.1476 22.0295 23.9358 22.1355C23.9358 22.1355 23.83 22.2414 22.3472 23.9359C22.2412 24.1477 22.0294 24.2537 21.8176 24.2537H21.7116C21.6058 24.2537 21.394 24.1477 21.288 24.0419L20.7584 23.8301C19.5934 23.3005 18.5344 22.665 17.687 21.8177C17.4752 21.6059 17.1575 21.3941 16.9457 21.1823C16.2043 20.4409 15.4629 19.5936 14.9334 18.6404L14.8275 18.4286C14.7216 18.3226 14.7216 18.2168 14.6157 18.005C14.6157 17.7932 14.6157 17.5814 14.7216 17.4754C14.7216 17.4754 15.1452 16.9458 15.4629 16.6282C15.6748 16.4162 15.7807 16.0986 15.9925 15.8868C16.2043 15.569 16.3102 15.1454 16.2043 14.8276C16.0984 14.298 14.8275 11.4385 14.5098 10.803C14.2979 10.4853 14.0862 10.3794 13.7684 10.2735H12.6035C12.3915 10.2735 12.1798 10.3794 11.9679 10.3794L11.8619 10.4853C11.6501 10.5912 11.4383 10.803 11.2265 10.9089C11.0147 11.1208 10.9087 11.3325 10.6969 11.5444C9.95553 12.4976 9.53192 13.6626 9.53192 14.8276C9.53192 15.6748 9.74372 16.5222 10.0615 17.2636L10.1675 17.5814C11.1207 19.5936 12.3915 21.3941 14.0862 22.9827L14.5098 23.4063C14.8275 23.7241 15.1452 23.9359 15.3571 24.2536C17.5812 26.1601 20.123 27.5369 22.9826 28.2783C23.3004 28.3841 23.724 28.3841 24.0418 28.4901H25.1008C25.6304 28.4901 26.2658 28.2783 26.6895 28.0665C27.0072 27.8547 27.219 27.8547 27.4308 27.6429L27.6427 27.4309C27.8545 27.2191 28.0663 27.1133 28.2781 26.9015C28.4899 26.6897 28.7017 26.4779 28.8077 26.2659C29.0195 25.8423 29.1253 25.3127 29.2313 24.7833V24.0419C29.2313 24.0419 29.1253 23.9359 28.9135 23.8301V23.8301Z" fill="white"/>
</svg>
